<?xml version="1.0" encoding="utf-8"?>
<!-- Generator: Adobe Illustrator 26.5.0, SVG Export Plug-In . SVG Version: 6.00 Build 0)  -->
<svg version="1.1" id="STROKE_2PT" xmlns="http://www.w3.org/2000/svg" xmlns:xlink="http://www.w3.org/1999/xlink" x="0px" y="0px"
	 viewBox="0 0 100 100" style="enable-background:new 0 0 100 100;" xml:space="preserve">
<style type="text/css">
	.st0{fill:none;stroke:#EF7A1A;stroke-width:3;stroke-linecap:round;stroke-linejoin:round;}
</style>
<path class="st0" d="M45.8,7.7h-6.5v11.8H61V7.7h-6.5c-0.1-2.3-2-4.2-4.3-4.2S46,5.3,45.8,7.7L45.8,7.7L45.8,7.7z"/>
<path class="st0" d="M59.4,7.7h17.9c3.1,0,5.6,2.2,5.6,5v79c0,2.7-2.5,5-5.6,5H23.1c-3.1,0-5.6-2.2-5.6-5v-79c0-2.7,2.5-5,5.6-5
	h17.8"/>
<path class="st0" d="M17.6,71.6l14.6,0c0,0,13.6,1,18.9-9.5c5-10.1,9.7-19.7,9.7-19.7s6.6-14.2,21.7-5.6"/>
</svg>
