<svg width="28" height="30" viewBox="0 0 28 30" fill="none" xmlns="http://www.w3.org/2000/svg">
<path d="M9.49112 17.8279L0.898285 27.1511L2.84711 29.0001L11.4499 19.6871" stroke="#EF7A1A" stroke-linecap="round" stroke-linejoin="round"/>
<path d="M9.87157 17.4146L8.18637 19.2433C7.68248 19.7885 7.96279 20.3744 8.50005 20.8858C9.03731 21.3971 9.6313 21.641 10.1352 21.0957L11.8337 19.2772" stroke="#EF7A1A" stroke-linecap="round" stroke-linejoin="round"/>
<path d="M17.5968 21.0484C23.052 21.0484 27.4743 16.5604 27.4743 11.0242C27.4743 5.48798 23.052 1 17.5968 1C12.1415 1 7.71918 5.48798 7.71918 11.0242C7.71918 16.5604 12.1415 21.0484 17.5968 21.0484Z" stroke="#EF7A1A" stroke-linecap="round" stroke-linejoin="round"/>
<path d="M10.6324 18.346C11.5834 19.2503 12.668 19.9242 13.8126 20.3746V11.8303H10.0284V17.7195C10.2186 17.9363 10.4188 18.1462 10.6324 18.346Z" stroke="#EF7A1A" stroke-linecap="round" stroke-linejoin="round"/>
<path d="M21.3809 11.8267V20.1881C22.5589 19.6598 23.6534 18.8842 24.5911 17.8683C24.7947 17.6481 24.9849 17.4179 25.1651 17.1842V11.8267H21.3809Z" stroke="#EF7A1A" stroke-linecap="round" stroke-linejoin="round"/>
<path d="M17.5967 6.27954H13.8126V20.3744C15.0272 20.8519 16.3153 21.0754 17.5967 21.0449V6.27954Z" stroke="#EF7A1A" stroke-linecap="round" stroke-linejoin="round"/>
<path d="M17.5967 14.5701V21.0418C18.8915 21.0113 20.1796 20.7268 21.3809 20.1884V14.5701H17.5967Z" stroke="#EF7A1A" stroke-linecap="round" stroke-linejoin="round"/>
</svg>
