<svg width="29" height="36" viewBox="0 0 29 36" fill="none" xmlns="http://www.w3.org/2000/svg">
<path d="M2.98434 5.90318C3.03482 5.75167 12.5467 -4.36062 25.2441 4.9043" stroke="#EF7A1A" stroke-linecap="round" stroke-linejoin="round"/>
<path d="M1.84024 13.0301C1.84024 13.0301 5.37354 4.70792 13.3936 4.60691C21.4136 4.5059 26.1415 10.2354 26.4892 10.8864" stroke="#EF7A1A" stroke-linecap="round" stroke-linejoin="round"/>
<path d="M1.13916 18.0134C1.13916 18.0134 3.33205 17.5139 5.62028 13.0302C7.90852 8.54641 14.734 6.00431 20.2639 9.74171C25.7938 13.4791 24.4982 18.9617 24.4982 18.9617C24.4982 18.9617 23.1017 23.9954 24.2963 26.3355C25.4909 28.6756 26.4892 29.074 26.4892 29.074" stroke="#EF7A1A" stroke-linecap="round" stroke-linejoin="round"/>
<path d="M26.8425 14.2253C26.8425 14.2253 28.8335 17.8112 27.1398 25.1906" stroke="#EF7A1A" stroke-linecap="round" stroke-linejoin="round"/>
<path d="M1.13916 22.9964C1.13916 22.9964 5.27256 21.4531 7.56641 16.2174C9.85464 10.9873 14.218 11.3857 14.218 11.3857C14.218 11.3857 19.7142 11.0883 21.0098 16.8179C21.0098 16.8179 21.5089 18.911 20.4602 23.6922C19.417 28.4734 22.6362 30.8079 24.2458 31.6159" stroke="#EF7A1A" stroke-linecap="round" stroke-linejoin="round"/>
<path d="M1.13916 27.5813C1.13916 27.5813 6.50081 25.4545 8.85634 20.6172C10.1799 17.8899 11.0492 15.3702 13.444 15.0728C15.8332 14.7754 18.6262 16.5655 18.0261 20.4039C17.426 24.2423 7.71783 32.1661 5.92314 33.5073" stroke="#EF7A1A" stroke-linecap="round" stroke-linejoin="round"/>
<path d="M9.62469 34.7531C9.62469 34.7531 11.2007 32.1605 12.9449 32.1605C14.6891 32.1605 15.536 33.7542 15.7323 35" stroke="#EF7A1A" stroke-linecap="round" stroke-linejoin="round"/>
<path d="M17.3755 26.8295C17.3755 26.8295 16.4277 28.6533 17.426 30.898C18.4243 33.1426 19.9161 34.2032 19.9161 34.2032" stroke="#EF7A1A" stroke-linecap="round" stroke-linejoin="round"/>
<path d="M14.1675 18.5072C14.1675 18.5072 13.831 22.6599 4.46494 30.5219" stroke="#EF7A1A" stroke-linecap="round" stroke-linejoin="round"/>
</svg>
