<svg width="29" height="29" viewBox="0 0 29 29" fill="none" xmlns="http://www.w3.org/2000/svg">
<path d="M3.45655 8.60229C2.69331 10.2555 2.26794 12.0987 2.26794 14.0385C2.26794 21.2395 8.12348 27.08 15.3456 27.08C15.6533 27.08 15.958 27.0709 16.2597 27.0468" stroke="#EF7A1A" stroke-linecap="round" stroke-linejoin="round"/>
<path d="M27.5756 9.40479C28.1246 10.8438 28.4263 12.4065 28.4263 14.0385C28.4263 20.063 24.3295 25.1342 18.7636 26.6305" stroke="#EF7A1A" stroke-linecap="round" stroke-linejoin="round"/>
<path d="M4.98904 6.07721C7.38134 2.98805 11.1312 1 15.3456 1C20.1543 1 24.3537 3.58537 26.6253 7.44079" stroke="#EF7A1A" stroke-linecap="round" stroke-linejoin="round"/>
<path d="M1.42627 9.31433L3.54102 8.51489L4.39477 10.6025" stroke="#EF7A1A" stroke-linecap="round" stroke-linejoin="round"/>
<path d="M27.4519 5.51001L26.755 7.65493L24.589 7.00934" stroke="#EF7A1A" stroke-linecap="round" stroke-linejoin="round"/>
<path d="M20.3534 28.0001L18.5222 26.6757L19.8074 24.8204" stroke="#EF7A1A" stroke-linecap="round" stroke-linejoin="round"/>
</svg>
